#!OML:ASF E:\emotionWalksFemale\Project 1\Capture day 1\Session 1\Female1.ASF
:FULLY-SPECIFIED
:DEGREES
761
root 7.84243 15.5325 -38.0039 -175.038 -160.262 -181.901
lowerback 7.89594 0.719307 1.34483
upperback -4.32076 1.20304 1.00713
thorax -9.01488 0.536383 0.126215
lowerneck -5.43584 4.70852 1.00041
upperneck 8.07339 6.49202 -2.968
head 3.73394 3.1177 -0.829526
rclavicle -1.55301e-016 -7.35503e-015
rhumerus -41.6633 13.5369 -80.0708
rradius 46.7906
rwrist 7.70214
rhand -6.76174 -53.2048
rfingers 7.12502
rthumb 19.1 637.713
lclavicle -1.55301e-016 -7.35503e-015
lhumerus -18.4802 -19.9062 83.8248
lradius 58.2751
lwrist 0.558398
lhand -15.7728 -36.413
lfingers 7.12502
lthumb 10.4194 -6.69114
rfemur -12.8574 12.2711 24.7471
rtibia 33.2217
rfoot -12.8132 -21.3894
rtoes -15.1734
lfemur -15.2152 -14.8222 -23.0622
ltibia 36.9647
lfoot -9.09271 -23.7638
ltoes 18.2308
762
root 7.80029 15.5308 -38.0207 -174.867 -162.1 -181.924
lowerback 7.31507 0.802231 1.3895
upperback -4.00741 1.2945 0.916791
thorax -8.32948 0.581605 0.00134851
lowerneck -5.55287 4.01593 0.326604
upperneck 7.73196 5.55886 -2.37176
head 3.56808 2.66364 -0.565684
rclavicle 4.30555e-014 7.35503e-015
rhumerus -40.9513 12.9962 -79.4484
rradius 45.7405
rwrist 7.73612
rhand -6.63742 -53.8328
rfingers 7.12502
rthumb 19.2195 637.097
lclavicle 4.30555e-014 7.35503e-015
lhumerus -18.2444 -21.2645 83.8351
lradius 58.3172
lwrist 0.747445
lhand -13.9365 -36.3149
lfingers 7.12502
lthumb 12.1903 -6.69013
rfemur -12.6215 12.1049 25.0622
rtibia 32.828
rfoot -12.9807 -22.5234
rtoes -15.0899
lfemur -15.7101 -13.5949 -23.0008
ltibia 37.5684
lfoot -10.7449 -22.9547
ltoes 13.0017
763
root 7.76202 15.524 -38.0312 -174.768 -163.876 -181.858
lowerback 7.62786 0.857264 1.34304
upperback -4.20339 1.36716 0.830363
thorax -8.72353 0.613414 -0.0807492
lowerneck -5.56985 3.33302 -0.252696
upperneck 7.94932 4.65219 -1.8302
head 3.59926 2.2176 -0.330804
rclavicle 3.87397e-014 1.6201e-014
rhumerus -41.2552 12.8699 -79.1748
rradius 44.7193
rwrist 7.17628
rhand -6.98908 -52.9904
rfingers 7.12502
rthumb 18.8813 637.906
lclavicle 3.87397e-014 1.6201e-014
lhumerus -19.2022 -22.2269 84.1804
lradius 58.5399
lwrist 0.884943
lhand -12.3765 -36.2577
lfingers 7.12502
lthumb 13.6941 -6.72827
rfemur -12.334 11.8687 25.2554
rtibia 32.4141
rfoot -13.2713 -23.5326
rtoes -14.7542
lfemur -16.1643 -12.3898 -23.1114
ltibia 38.224
lfoot -13.2107 -21.5448
ltoes 2.50606
764
root 7.73254 15.5167 -38.044 -174.524 -165.912 -181.793
lowerback 7.46925 0.783994 1.4994
upperback -4.21045 1.27547 0.728658
thorax -8.63321 0.557212 -0.260017
lowerneck -5.5905 2.67674 -0.857827
upperneck 7.84999 3.78245 -1.35353
head 3.53492 1.78979 -0.112498
rclavicle 5.21422e-015 3.97569e-016
rhumerus -41.1238 12.7651 -78.8519
rradius 43.6397
rwrist 6.17806
rhand -7.24273 -54.147
rfingers 7.12502
rthumb 18.6374 636.726
lclavicle 5.21422e-015 3.97569e-016
lhumerus -19.7671 -23.0046 84.2841
lradius 58.7235
lwrist 1.21879
lhand -11.8528 -36.4453
lfingers 7.12502
lthumb 14.1988 -6.95056
rfemur -12.2237 11.2777 25.414
rtibia 31.9589
rfoot -13.4028 -24.6166
rtoes -15.3312
lfemur -16.9559 -11.5695 -23.104
ltibia 38.8427
lfoot -12.956 -21.6389
ltoes 9.62528
765
root 7.70207 15.5077 -38.0533 -174.306 -167.784 -181.69
lowerback 7.43237 0.761456 1.63256
upperback -4.25877 1.24823 0.573109
thorax -8.65814 0.530774 -0.495075
lowerneck -5.49871 2.04906 -1.34156
upperneck 7.58203 2.94086 -0.923527
head 3.40539 1.37982 0.0690437
rclavicle -3.68571e-014 -2.08724e-015
rhumerus -41.1026 12.6058 -78.5846
rradius 42.4778
rwrist 5.18931
rhand -8.56298 -54.4321
rfingers 7.12502
rthumb 17.3671 636.324
lclavicle -3.68571e-014 -2.08724e-015
lhumerus -20.2714 -23.7759 84.2729
lradius 58.8136
lwrist 1.39604
lhand -11.284 -36.5523
lfingers 7.12502
lthumb 14.7469 -7.09684
rfemur -12.0955 10.8036 25.5295
rtibia 31.5274
rfoot -13.7117 -25.6803
rtoes -15.1548
lfemur -17.6387 -10.5799 -23.1793
ltibia 39.4627
lfoot -13.8274 -21.3224
ltoes 8.99839
766
root 7.66056 15.4983 -38.0668 -174.166 -169.524 -181.572
lowerback 7.70129 0.785986 1.6234
upperback -4.36085 1.27087 0.356969
thorax -8.92196 0.53193 -0.72769
lowerneck -5.50817 1.4134 -1.63672
upperneck 7.4638 2.07877 -0.506077
head 3.3601 0.962242 0.216478
rclavicle -2.24133e-014 -4.72114e-015
rhumerus -40.8878 11.6272 -77.914
rradius 41.8974
rwrist 8.40321
rhand -5.22657 -53.1579
rfingers 7.12502
rthumb 20.5757 637.913
lclavicle -2.24133e-014 -4.72114e-015
lhumerus -20.8636 -24.5807 84.1492
lradius 58.7461
lwrist 1.07227
lhand -10.8456 -36.3832
lfingers 7.12502
lthumb 15.1692 -6.95916
rfemur -11.8375 10.7744 25.7107
rtibia 31.1068
rfoot -14.4513 -26.7994
rtoes -13.1991
lfemur -18.1435 -9.34131 -23.2264
ltibia 40.0381
lfoot -16.3113 -20.4907
ltoes -2.63268
767
root 7.62892 15.4852 -38.082 -174.383 -171.199 -181.493
lowerback 8.07989 0.864313 1.33666
upperback -4.18902 1.35782 0.471483
thorax -8.96448 0.595764 -0.463969
lowerneck -5.4981 0.727324 -2.25599
upperneck 7.26535 1.19269 -0.280728
head 3.29126 0.51645 0.356896
rclavicle -1.44554e-014 -1.12313e-014
rhumerus -40.1789 11.1484 -76.9187
rradius 40.4484
rwrist 9.52039
rhand -3.8579 -54.2305
rfingers 7.12502
rthumb 21.8904 636.988
lclavicle -1.44554e-014 -1.12313e-014
lhumerus -21.2811 -25.0027 84.4812
lradius 58.5325
lwrist 0.546235
lhand -10.4817 -35.8435
lfingers 7.12502
lthumb 15.5198 -6.44631
rfemur -11.2203 10.753 25.9507
rtibia 30.668
rfoot -14.8389 -27.877
rtoes -12.0662
lfemur -18.2967 -8.22307 -23.3257
ltibia 40.6354
lfoot -19.6985 -18.8194
ltoes -21.0781
